<svg width="68" height="68" viewBox="0 0 68 68" fill="none" xmlns="http://www.w3.org/2000/svg">
<path d="M67.97 47.4946L61.7347 24.6396C61.6754 24.4223 61.5329 24.2389 61.3383 24.1275C61.1436 24.016 60.9122 23.9864 60.695 24.0457L52.2166 26.3592C51.7652 26.482 51.4999 26.9475 51.6227 27.3989L51.8794 28.3385C49.6053 28.3088 47.3115 27.9689 44.9528 27.5188V23.4588H59.802C60.269 23.4588 60.6484 23.0793 60.6484 22.6124V17.1458C60.6484 13.6656 57.8171 10.8329 54.3355 10.8329H47.6854C44.4153 10.8329 41.718 13.3327 41.4034 16.5209C40.3496 15.9058 39.1266 15.5517 37.823 15.5517H30.1798C28.8749 15.5517 27.6518 15.9058 26.598 16.5209C26.2834 13.3327 23.5861 10.8329 20.3161 10.8329H13.666C10.1857 10.8329 7.353 13.6642 7.353 17.1458V22.6124C7.353 23.0793 7.73248 23.4588 8.19943 23.4588H23.0486V27.4582C20.6123 28.1762 18.2945 28.8237 16.1178 28.3526L16.3773 27.3989C16.5001 26.9475 16.2349 26.482 15.7834 26.3592L7.30504 24.0457C7.08779 23.9864 6.85784 24.016 6.66175 24.1275C6.46707 24.2389 6.32459 24.4237 6.26534 24.6396L0.0299732 47.4946C-0.0927591 47.946 0.172456 48.4115 0.623885 48.5343L9.10229 50.8478C9.17564 50.8676 9.25041 50.8775 9.32518 50.8775C9.47189 50.8775 9.61579 50.8394 9.74557 50.766C9.94025 50.6546 10.0827 50.4698 10.142 50.2539L10.5342 48.8192C12.536 48.7092 14.3304 49.8279 15.9936 52.2233L15.2065 53.1925C14.6393 53.8908 14.377 54.771 14.4701 55.6711C14.5632 56.5711 14.9991 57.3795 15.6974 57.9466C16.1968 58.3528 16.778 58.5884 17.3733 58.6689C17.0714 59.2487 16.9445 59.9075 17.0136 60.5761C17.1067 61.4762 17.5426 62.2845 18.2409 62.8516C18.8461 63.344 19.5895 63.6064 20.3626 63.6064C20.4811 63.6064 20.5996 63.6007 20.7181 63.588C21.1413 63.5443 21.5434 63.4244 21.9102 63.2367C22.0879 63.8998 22.4674 64.5134 23.0387 64.979C23.6637 65.4868 24.4184 65.7337 25.1675 65.7337C25.8376 65.7337 26.5049 65.5348 27.0734 65.1483C27.2681 65.745 27.6292 66.2952 28.1526 66.7198C28.7578 67.2121 29.5012 67.4745 30.2743 67.4745C30.3928 67.4745 30.5113 67.4689 30.6298 67.4562C31.5298 67.3631 32.3382 66.9272 32.9053 66.2289L33.2439 65.8127L34.7279 67.0767C35.4121 67.6593 36.2642 67.9711 37.1572 67.9711C37.2588 67.9711 37.3617 67.9669 37.4647 67.9584C38.4677 67.878 39.3777 67.4139 40.028 66.6521C40.6149 65.9637 40.9252 65.1045 40.921 64.2045C41.2257 64.2835 41.5431 64.3258 41.8647 64.3258C41.9663 64.3258 42.0693 64.3216 42.1723 64.3131C43.1753 64.2327 44.0852 63.7686 44.7356 63.0068C45.321 62.3184 45.6328 61.4592 45.6285 60.5606C45.9403 60.641 46.2591 60.6819 46.578 60.6819C47.6416 60.6819 48.6997 60.2333 49.4431 59.3615C50.03 58.6731 50.3403 57.814 50.3361 56.9139C50.6408 56.9929 50.9582 57.0352 51.2799 57.0352C51.3814 57.0352 51.4844 57.031 51.5874 57.0225C52.5904 56.9421 53.5003 56.478 54.1507 55.7162C54.7996 54.9544 55.1128 53.9825 55.0324 52.978C54.9788 52.3009 54.7488 51.6675 54.3722 51.1272C55.3582 50.3047 56.4374 49.6911 57.5914 49.2961L57.8524 50.2525C57.9116 50.4698 58.0541 50.6532 58.2488 50.7646C58.3786 50.838 58.5225 50.8761 58.6692 50.8761C58.744 50.8761 58.8187 50.8662 58.8921 50.8464L67.3705 48.5329C67.8276 48.4101 68.0928 47.9446 67.97 47.4946ZM47.6854 12.5243H54.3355C56.8832 12.5243 58.9556 14.5967 58.9556 17.1444V21.7645H56.5348V16.8623C56.5348 16.3953 56.1553 16.0159 55.6884 16.0159C55.2214 16.0159 54.8419 16.3953 54.8419 16.8623V21.7645H47.1803V16.8623C47.1803 16.3953 46.8008 16.0159 46.3339 16.0159C45.867 16.0159 45.4875 16.3953 45.4875 16.8623V21.7645H44.8921C44.6989 20.2678 44.0415 18.9149 43.0667 17.8554V17.1444C43.0653 14.5967 45.139 12.5243 47.6854 12.5243ZM37.823 17.2446C40.8208 17.2446 43.2599 19.6837 43.2599 22.6815V27.1817C42.7464 27.0759 42.2301 26.9687 41.7096 26.8586C41.2172 26.7556 40.7221 26.6512 40.2241 26.5497V22.357C40.2241 21.8901 39.8446 21.5106 39.3777 21.5106C38.9107 21.5106 38.5312 21.8901 38.5312 22.357V26.2111C35.611 25.6468 32.6048 25.1982 29.4716 25.2053V22.357C29.4716 21.8901 29.0921 21.5106 28.6252 21.5106C28.1582 21.5106 27.7788 21.8901 27.7788 22.357V25.5029C27.4924 25.6327 27.2215 25.8034 26.969 26.0192C26.7969 26.166 26.622 26.3155 26.4456 26.465C26.4061 26.4989 26.3666 26.5327 26.3271 26.5666C25.7981 26.6837 25.2691 26.8205 24.7429 26.9658V22.6801C24.7429 19.6823 27.182 17.2432 30.1798 17.2432L37.823 17.2446ZM9.04727 17.1444C9.04727 14.5967 11.1196 12.5243 13.6674 12.5243H20.3175C22.8652 12.5243 24.9376 14.5967 24.9376 17.1444V17.8554C23.9628 18.9135 23.3054 20.2663 23.1121 21.7631H22.5168V16.8609C22.5168 16.3939 22.1373 16.0144 21.6704 16.0144C21.2034 16.0144 20.8239 16.3939 20.8239 16.8609V21.7631H13.1623V16.8609C13.1623 16.3939 12.7828 16.0144 12.3159 16.0144C11.849 16.0144 11.4695 16.3939 11.4695 16.8609V21.7631H9.04727V17.1444ZM8.73409 48.9913L1.88789 47.1236L7.67888 25.9007L14.5251 27.7685L8.73409 48.9913ZM16.1559 55.4947C16.1093 55.0447 16.2391 54.606 16.5212 54.2575L18.8828 51.3515C19.1649 51.0044 19.5684 50.7872 20.0184 50.7406C20.4684 50.6941 20.9072 50.8239 21.2556 51.106C21.9765 51.6929 22.0879 52.7551 21.5011 53.4774L19.1381 56.3849C18.5513 57.1058 17.4876 57.2158 16.7653 56.6304C16.4197 56.3482 16.2024 55.9448 16.1559 55.4947ZM20.5474 61.9008C20.0974 61.9474 19.6587 61.8176 19.3102 61.5354C18.9632 61.2533 18.7459 60.8498 18.6994 60.3998C18.6528 59.9498 18.7826 59.511 19.0648 59.1626L20.4543 57.4528L24.2054 52.837C24.5383 52.4278 25.025 52.2148 25.516 52.2148C25.8898 52.2148 26.2665 52.339 26.5782 52.5915C27.3005 53.1783 27.4106 54.242 26.8237 54.9643L25.9575 56.0308L25.9561 56.0336L22.5521 60.222L21.6845 61.29C21.4009 61.6384 20.9974 61.8543 20.5474 61.9008ZM24.1109 63.6628C23.3886 63.0759 23.2786 62.0122 23.8654 61.29L27.2695 57.1015C27.8563 56.3807 28.92 56.2706 29.6423 56.8575C30.3646 57.4443 30.4746 58.508 29.8878 59.2303L26.4837 63.4187C25.8969 64.1396 24.8318 64.2496 24.1109 63.6628ZM30.4605 65.7704C30.0091 65.8169 29.5704 65.6872 29.2233 65.405C28.8763 65.1229 28.659 64.7194 28.6125 64.2694C28.5659 63.8194 28.6957 63.3806 28.9779 63.0322L30.0204 61.7499C30.3025 61.4028 30.706 61.1856 31.156 61.139C31.606 61.0925 32.0448 61.2222 32.3932 61.5044C33.1155 62.0912 33.2255 63.1549 32.6387 63.8772L31.5962 65.1596C31.314 65.5066 30.9105 65.7238 30.4605 65.7704ZM52.8669 54.6187C52.5114 55.0363 52.0106 55.2916 51.4576 55.3353C50.9046 55.3791 50.37 55.2084 49.9524 54.8515L42.0651 48.1322C41.7096 47.8289 41.1749 47.8712 40.8716 48.2281C40.5683 48.5851 40.6106 49.1183 40.9675 49.4216L47.9266 55.3494C48.3442 55.7049 48.5995 56.2057 48.6432 56.7587C48.687 57.3117 48.5163 57.8464 48.1594 58.264C47.4201 59.1316 46.1138 59.236 45.2448 58.4967L44.318 57.7067L44.3166 57.7053L44.3152 57.7039L38.7428 52.9569C38.3873 52.6536 37.8527 52.6959 37.5494 53.0528C37.2461 53.4083 37.2884 53.943 37.6453 54.2463L43.2205 58.9947C43.638 59.3502 43.892 59.851 43.9357 60.4026C43.9794 60.9556 43.8087 61.4903 43.4518 61.9079C43.0949 62.3254 42.5955 62.5808 42.0425 62.6245C41.4909 62.6682 40.9548 62.4975 40.5373 62.1406L35.4206 57.7815C35.0651 57.4782 34.5304 57.5205 34.2271 57.8774C33.9238 58.2343 33.9662 58.7676 34.3231 59.0709L38.5115 62.6386C38.9291 62.9941 39.1844 63.4949 39.2281 64.0479C39.2719 64.6009 39.1012 65.1356 38.7442 65.5531C38.3873 65.9707 37.8879 66.2261 37.3349 66.2698C36.7834 66.3135 36.2473 66.1428 35.8297 65.7859L34.2765 64.4627C34.6137 63.8603 34.759 63.169 34.6856 62.4651C34.5925 61.5651 34.1566 60.7567 33.4583 60.1896C32.9476 59.7749 32.3396 59.5237 31.6991 59.456C32.255 58.1116 31.8938 56.5048 30.7074 55.5413C30.1361 55.0772 29.4561 54.8303 28.7719 54.7922C29.1119 53.5409 28.7141 52.1471 27.6447 51.2781C26.3793 50.2497 24.5905 50.2906 23.3745 51.2838C23.1699 50.704 22.8116 50.189 22.3235 49.7926C21.6252 49.2255 20.7449 48.9631 19.8449 49.0562C18.9448 49.1493 18.1365 49.5852 17.5694 50.2836L17.101 50.8605C15.301 48.4355 13.2554 47.1828 10.9983 47.1193L15.672 29.9862C16.3393 30.1385 17.0079 30.2048 17.678 30.2048C19.6164 30.2048 21.5603 29.6603 23.4648 29.0988C20.7689 31.6621 18.4172 34.6669 18.6613 38.2205C18.76 39.6566 19.8223 40.8177 21.2429 41.0462C23.991 41.4877 26.5035 39.8231 28.9327 38.2149C30.1756 37.391 31.4621 36.5404 32.7346 36.0057C33.3468 35.7489 33.9873 35.8477 34.4923 36.2766L52.6299 51.7056C53.0475 52.0611 53.3028 52.5619 53.3466 53.1149C53.3903 53.6679 53.2224 54.2011 52.8669 54.6187ZM53.1646 49.9337L35.5913 34.9858C34.5967 34.1421 33.2848 33.9404 32.0828 34.4454C30.6637 35.0408 29.3094 35.9366 28.0016 36.8042C25.7431 38.2995 23.6101 39.7117 21.5138 39.3759C20.8648 39.2715 20.3979 38.7608 20.3527 38.1048C20.0777 34.1083 24.2167 30.5857 27.5418 27.7558C27.7195 27.6049 27.8944 27.4554 28.068 27.3072C28.3868 27.035 28.731 26.9052 29.15 26.8995C33.3737 26.8417 37.4337 27.6938 41.3611 28.5162C45.1362 29.3062 48.7152 30.0539 52.3407 30.0327L57.1499 47.6596C55.7095 48.1364 54.3736 48.8982 53.1646 49.9337ZM59.2687 48.9913L53.4792 27.7685L60.3254 25.9007L66.115 47.1236L59.2687 48.9913ZM34.0014 13.8617C36.9682 13.8617 39.3819 11.448 39.3819 8.48122C39.3819 5.51449 36.9682 3.10075 34.0014 3.10075C31.0347 3.10075 28.621 5.51449 28.621 8.48122C28.621 11.448 31.0347 13.8617 34.0014 13.8617ZM34.0014 4.79361C36.0357 4.79361 37.689 6.44838 37.689 8.48122C37.689 10.5141 36.0343 12.1688 34.0014 12.1688C31.9686 12.1688 30.3138 10.5141 30.3138 8.48122C30.3138 6.44697 31.9686 4.79361 34.0014 4.79361ZM51.0104 9.58158C53.6527 9.58158 55.8012 7.43165 55.8012 4.79079C55.8012 2.14993 53.6527 0 51.0104 0C48.3682 0 46.2196 2.14993 46.2196 4.79079C46.2196 7.43165 48.3682 9.58158 51.0104 9.58158ZM51.0104 1.69286C52.7188 1.69286 54.1084 3.08241 54.1084 4.79079C54.1084 6.49917 52.7188 7.88872 51.0104 7.88872C49.302 7.88872 47.9125 6.49917 47.9125 4.79079C47.9125 3.08241 49.302 1.69286 51.0104 1.69286ZM16.9924 9.58158C19.6347 9.58158 21.7832 7.43165 21.7832 4.79079C21.7832 2.14993 19.6333 0 16.9924 0C14.3501 0 12.2016 2.14993 12.2016 4.79079C12.2016 7.43165 14.3501 9.58158 16.9924 9.58158ZM16.9924 1.69286C18.7008 1.69286 20.0904 3.08241 20.0904 4.79079C20.0904 6.49917 18.7008 7.88872 16.9924 7.88872C15.284 7.88872 13.8945 6.49917 13.8945 4.79079C13.8945 3.08241 15.284 1.69286 16.9924 1.69286Z" fill="#636363"/>
</svg>
