<svg width="54" height="54" viewBox="0 0 54 54" fill="none" xmlns="http://www.w3.org/2000/svg">
<path d="M36 47.25V42.75C36 40.3631 35.0518 38.0739 33.364 36.386C31.6761 34.6982 29.3869 33.75 27 33.75H11.25C8.86305 33.75 6.57387 34.6982 4.88604 36.386C3.19821 38.0739 2.25 40.3631 2.25 42.75V47.25" stroke="#FAFAFA" stroke-width="2" stroke-linecap="round" stroke-linejoin="round"/>
<path d="M19 29C23.9706 29 28 24.0751 28 18C28 11.9249 23.9706 7 19 7C14.0294 7 10 11.9249 10 18C10 24.0751 14.0294 29 19 29Z" stroke="#FAFAFA" stroke-width="2" stroke-linecap="round" stroke-linejoin="round"/>
<path d="M38 28.5L42.6667 34L52 23" stroke="#FAFAFA" stroke-width="2" stroke-linecap="round" stroke-linejoin="round"/>
</svg>
