<svg width="49" height="48" viewBox="0 0 49 48" fill="none" xmlns="http://www.w3.org/2000/svg">
<path d="M32.5 16C35.6826 16 38.7348 17.2643 40.9853 19.5147C43.2357 21.7652 44.5 24.8174 44.5 28V42H36.5V28C36.5 26.9391 36.0786 25.9217 35.3284 25.1716C34.5783 24.4214 33.5609 24 32.5 24C31.4391 24 30.4217 24.4214 29.6716 25.1716C28.9214 25.9217 28.5 26.9391 28.5 28V42H20.5V28C20.5 24.8174 21.7643 21.7652 24.0147 19.5147C26.2652 17.2643 29.3174 16 32.5 16Z" stroke="#0258A0" stroke-width="2" stroke-linecap="round" stroke-linejoin="round"/>
<path d="M12.5 18H4.5V42H12.5V18Z" stroke="#0258A0" stroke-width="2" stroke-linecap="round" stroke-linejoin="round"/>
<path d="M8.5 12C10.7091 12 12.5 10.2091 12.5 8C12.5 5.79086 10.7091 4 8.5 4C6.29086 4 4.5 5.79086 4.5 8C4.5 10.2091 6.29086 12 8.5 12Z" stroke="#0258A0" stroke-width="2" stroke-linecap="round" stroke-linejoin="round"/>
</svg>
