<svg width="50" height="50" viewBox="0 0 50 50" fill="none" xmlns="http://www.w3.org/2000/svg">
<path d="M1.00007 26.3333C0.990898 22.8137 1.81322 19.3416 3.40007 16.2C5.28158 12.4353 8.17406 9.26886 11.7535 7.05524C15.333 4.84163 19.4581 3.66829 23.6667 3.66666C27.1863 3.65748 30.6584 4.47981 33.8 6.06666L49 0.999999L43.9333 16.2C45.5202 19.3416 46.3425 22.8137 46.3333 26.3333C46.3317 30.5419 45.1584 34.667 42.9448 38.2465C40.7311 41.8259 37.5647 44.7184 33.8 46.5999C30.6584 48.1868 27.1863 49.0091 23.6667 48.9999H22.3334C16.7751 48.6933 11.5253 46.3472 7.58903 42.411C3.65277 38.4747 1.30672 33.2249 1.00007 27.6666V26.3333Z" stroke="#FAFAFA" stroke-width="2" stroke-linecap="round" stroke-linejoin="round"/>
</svg>
